<mxfile modified="2023-08-01T07:31:07.914Z" host="app.diagrams.net" agent="5.0 (Macintosh; Intel Mac OS X 10_15_7) AppleWebKit/537.36 (KHTML, like Gecko) Chrome/114.0.0.0 Safari/537.36" etag="e7cdVbJuvXTA92u0oMnW" version="20.6.2" type="github">
  <diagram id="d1ab7348-05c3-a1e3-ca4d-12c340fd6b49" name="Page-1">
    <mxGraphModel dx="1501" dy="843" grid="1" gridSize="10" guides="1" tooltips="1" connect="1" arrows="1" fold="1" page="1" pageScale="1" pageWidth="1169" pageHeight="827" background="none" math="0" shadow="0">
      <root>
        <mxCell id="0" />
        <mxCell id="1" parent="0" />
        <mxCell id="jTatU7AVdfJ_VlUUd2LV-460" value="&lt;span style=&quot;background-color: rgb(255, 255, 255);&quot;&gt;webrtc&lt;/span&gt;" style="edgeStyle=orthogonalEdgeStyle;shape=connector;rounded=0;orthogonalLoop=1;jettySize=auto;html=1;entryX=0;entryY=0.5;entryDx=0;entryDy=0;entryPerimeter=0;dashed=0;labelBackgroundColor=none;strokeColor=#4284F3;strokeWidth=2;fontFamily=Helvetica;fontSize=12;fontColor=#999999;startArrow=none;startFill=0;endArrow=blockThin;endFill=1;startSize=4;endSize=4;" edge="1" parent="1" source="jTatU7AVdfJ_VlUUd2LV-457" target="jTatU7AVdfJ_VlUUd2LV-449">
          <mxGeometry relative="1" as="geometry" />
        </mxCell>
        <mxCell id="jTatU7AVdfJ_VlUUd2LV-431" value="&lt;b&gt;低延时直播服务&lt;/b&gt;" style="fillColor=#F6F6F6;strokeColor=none;shadow=0;gradientColor=none;fontSize=14;align=left;spacing=10;fontColor=#717171;9E9E9E;verticalAlign=top;spacingTop=-4;fontStyle=0;spacingLeft=40;html=1;fontFamily=Helvetica;container=0;" vertex="1" parent="1">
          <mxGeometry x="370" y="160" width="240" height="340" as="geometry" />
        </mxCell>
        <mxCell id="jTatU7AVdfJ_VlUUd2LV-459" style="edgeStyle=orthogonalEdgeStyle;shape=connector;rounded=0;orthogonalLoop=1;jettySize=auto;html=1;entryX=0;entryY=0.5;entryDx=0;entryDy=0;dashed=0;labelBackgroundColor=none;strokeColor=#4284F3;strokeWidth=2;fontFamily=Helvetica;fontSize=12;fontColor=#999999;startArrow=none;startFill=0;endArrow=blockThin;endFill=1;startSize=4;endSize=4;exitX=1;exitY=0.5;exitDx=0;exitDy=0;" edge="1" parent="1" source="jTatU7AVdfJ_VlUUd2LV-435" target="jTatU7AVdfJ_VlUUd2LV-457">
          <mxGeometry relative="1" as="geometry" />
        </mxCell>
        <mxCell id="jTatU7AVdfJ_VlUUd2LV-418" value="低延时直播服务" style="fillColor=#4DA1F5;strokeColor=none;shadow=1;gradientColor=none;fontSize=14;align=left;spacingLeft=50;fontColor=#ffffff;fontFamily=Helvetica;" vertex="1" parent="1">
          <mxGeometry x="165" y="110" width="840" height="40" as="geometry" />
        </mxCell>
        <mxCell id="jTatU7AVdfJ_VlUUd2LV-424" value="" style="group" vertex="1" connectable="0" parent="1">
          <mxGeometry x="179" y="160" width="124" height="340" as="geometry" />
        </mxCell>
        <mxCell id="jTatU7AVdfJ_VlUUd2LV-423" value="推流SDK" style="sketch=0;points=[[0,0,0],[0.25,0,0],[0.5,0,0],[0.75,0,0],[1,0,0],[1,0.25,0],[1,0.5,0],[1,0.75,0],[1,1,0],[0.75,1,0],[0.5,1,0],[0.25,1,0],[0,1,0],[0,0.75,0],[0,0.5,0],[0,0.25,0]];rounded=1;absoluteArcSize=1;arcSize=2;html=1;strokeColor=none;gradientColor=none;shadow=0;dashed=0;fontSize=12;fontColor=#9E9E9E;align=left;verticalAlign=top;spacing=10;spacingTop=-4;fillColor=#F1F8E9;fontFamily=Helvetica;" vertex="1" parent="jTatU7AVdfJ_VlUUd2LV-424">
          <mxGeometry width="124" height="340" as="geometry" />
        </mxCell>
        <mxCell id="jTatU7AVdfJ_VlUUd2LV-412" value="pc直播" style="strokeColor=#dddddd;shadow=1;strokeWidth=1;rounded=1;absoluteArcSize=1;arcSize=2;labelPosition=center;verticalLabelPosition=middle;align=center;verticalAlign=bottom;spacingLeft=0;fontColor=#999999;fontSize=12;whiteSpace=wrap;spacingBottom=2;fontFamily=Helvetica;" vertex="1" parent="jTatU7AVdfJ_VlUUd2LV-424">
          <mxGeometry x="25.5" y="140" width="70" height="85" as="geometry" />
        </mxCell>
        <mxCell id="jTatU7AVdfJ_VlUUd2LV-413" value="" style="sketch=0;dashed=0;connectable=0;html=1;fillColor=#757575;strokeColor=none;shape=mxgraph.gcp2.laptop;part=1;fontFamily=Helvetica;fontSize=12;fontColor=default;" vertex="1" parent="jTatU7AVdfJ_VlUUd2LV-412">
          <mxGeometry x="0.5" width="50" height="33" relative="1" as="geometry">
            <mxPoint x="-25" y="18.5" as="offset" />
          </mxGeometry>
        </mxCell>
        <mxCell id="jTatU7AVdfJ_VlUUd2LV-414" value="手机直播" style="strokeColor=#dddddd;shadow=1;strokeWidth=1;rounded=1;absoluteArcSize=1;arcSize=2;labelPosition=center;verticalLabelPosition=middle;align=center;verticalAlign=bottom;spacingLeft=0;fontColor=#999999;fontSize=12;whiteSpace=wrap;spacingBottom=2;fontFamily=Helvetica;" vertex="1" parent="jTatU7AVdfJ_VlUUd2LV-424">
          <mxGeometry x="25.5" y="40" width="70" height="85" as="geometry" />
        </mxCell>
        <mxCell id="jTatU7AVdfJ_VlUUd2LV-415" value="" style="sketch=0;dashed=0;connectable=0;html=1;fillColor=#757575;strokeColor=none;shape=mxgraph.gcp2.phone;part=1;fontFamily=Helvetica;fontSize=12;fontColor=default;" vertex="1" parent="jTatU7AVdfJ_VlUUd2LV-414">
          <mxGeometry x="0.5" width="32" height="50" relative="1" as="geometry">
            <mxPoint x="-16" y="10" as="offset" />
          </mxGeometry>
        </mxCell>
        <mxCell id="jTatU7AVdfJ_VlUUd2LV-416" value="设备直播" style="strokeColor=#dddddd;shadow=1;strokeWidth=1;rounded=1;absoluteArcSize=1;arcSize=2;labelPosition=center;verticalLabelPosition=middle;align=center;verticalAlign=bottom;spacingLeft=0;fontColor=#999999;fontSize=12;whiteSpace=wrap;spacingBottom=2;fontFamily=Helvetica;" vertex="1" parent="jTatU7AVdfJ_VlUUd2LV-424">
          <mxGeometry x="25" y="240" width="70" height="85" as="geometry" />
        </mxCell>
        <mxCell id="jTatU7AVdfJ_VlUUd2LV-417" value="" style="sketch=0;dashed=0;connectable=0;html=1;fillColor=#757575;strokeColor=none;shape=mxgraph.gcp2.record;part=1;fontFamily=Helvetica;fontSize=12;fontColor=default;" vertex="1" parent="jTatU7AVdfJ_VlUUd2LV-416">
          <mxGeometry x="0.5" width="50" height="33" relative="1" as="geometry">
            <mxPoint x="-25" y="18.5" as="offset" />
          </mxGeometry>
        </mxCell>
        <mxCell id="jTatU7AVdfJ_VlUUd2LV-426" style="edgeStyle=orthogonalEdgeStyle;shape=connector;rounded=0;orthogonalLoop=1;jettySize=auto;html=1;entryX=0;entryY=0.5;entryDx=0;entryDy=0;dashed=0;labelBackgroundColor=none;strokeColor=#4284F3;strokeWidth=2;fontFamily=Helvetica;fontSize=12;fontColor=default;startArrow=none;startFill=0;endArrow=blockThin;endFill=1;startSize=4;endSize=4;" edge="1" parent="1" source="jTatU7AVdfJ_VlUUd2LV-423" target="jTatU7AVdfJ_VlUUd2LV-437">
          <mxGeometry relative="1" as="geometry">
            <mxPoint x="385.5" y="270" as="targetPoint" />
          </mxGeometry>
        </mxCell>
        <mxCell id="jTatU7AVdfJ_VlUUd2LV-433" value="&lt;font color=&quot;#999999&quot;&gt;rtmp&lt;/font&gt;" style="edgeLabel;html=1;align=center;verticalAlign=middle;resizable=0;points=[];fontSize=12;fontFamily=Helvetica;fontColor=default;" vertex="1" connectable="0" parent="jTatU7AVdfJ_VlUUd2LV-426">
          <mxGeometry x="0.0919" relative="1" as="geometry">
            <mxPoint as="offset" />
          </mxGeometry>
        </mxCell>
        <mxCell id="jTatU7AVdfJ_VlUUd2LV-427" style="edgeStyle=orthogonalEdgeStyle;shape=connector;rounded=0;orthogonalLoop=1;jettySize=auto;html=1;entryX=0;entryY=0.5;entryDx=0;entryDy=0;dashed=0;labelBackgroundColor=none;strokeColor=#4284F3;strokeWidth=2;fontFamily=Helvetica;fontSize=12;fontColor=default;startArrow=none;startFill=0;endArrow=blockThin;endFill=1;startSize=4;endSize=4;" edge="1" parent="1" source="jTatU7AVdfJ_VlUUd2LV-423" target="jTatU7AVdfJ_VlUUd2LV-439">
          <mxGeometry relative="1" as="geometry">
            <mxPoint x="385.5" y="380" as="targetPoint" />
          </mxGeometry>
        </mxCell>
        <mxCell id="jTatU7AVdfJ_VlUUd2LV-434" value="&lt;font color=&quot;#999999&quot;&gt;webrtc&lt;/font&gt;" style="edgeLabel;html=1;align=center;verticalAlign=middle;resizable=0;points=[];fontSize=12;fontFamily=Helvetica;fontColor=default;" vertex="1" connectable="0" parent="jTatU7AVdfJ_VlUUd2LV-427">
          <mxGeometry x="0.0536" relative="1" as="geometry">
            <mxPoint as="offset" />
          </mxGeometry>
        </mxCell>
        <mxCell id="jTatU7AVdfJ_VlUUd2LV-432" value="" style="shape=mxgraph.gcp2.google_cloud_platform;fillColor=#F6F6F6;strokeColor=none;shadow=0;gradientColor=none;fontFamily=Helvetica;fontSize=12;fontColor=default;" vertex="1" parent="1">
          <mxGeometry x="390" y="170" width="23" height="20" as="geometry">
            <mxPoint x="20" y="10" as="offset" />
          </mxGeometry>
        </mxCell>
        <mxCell id="jTatU7AVdfJ_VlUUd2LV-435" value="" style="shape=mxgraph.gcp2.doubleRect;strokeColor=#dddddd;fillColor=#ffffff;shadow=1;strokeWidth=1;fontSize=12;fontColor=#9E9E9E;align=center;html=1;" vertex="1" parent="1">
          <mxGeometry x="410" y="303" width="160" height="68" as="geometry" />
        </mxCell>
        <mxCell id="jTatU7AVdfJ_VlUUd2LV-436" value="&lt;font color=&quot;#000000&quot;&gt;rtc流媒体集群&lt;/font&gt;&lt;br&gt;流媒体" style="dashed=0;connectable=0;html=1;fillColor=#5184F3;strokeColor=none;shape=mxgraph.gcp2.hexIcon;prIcon=compute_engine;part=1;labelPosition=right;verticalLabelPosition=middle;align=left;verticalAlign=middle;spacingLeft=5;fontColor=#999999;fontSize=12;" vertex="1" parent="jTatU7AVdfJ_VlUUd2LV-435">
          <mxGeometry y="0.5" width="44" height="39" relative="1" as="geometry">
            <mxPoint x="5" y="-19.5" as="offset" />
          </mxGeometry>
        </mxCell>
        <mxCell id="jTatU7AVdfJ_VlUUd2LV-441" style="edgeStyle=orthogonalEdgeStyle;shape=connector;rounded=0;orthogonalLoop=1;jettySize=auto;html=1;entryX=0.5;entryY=0;entryDx=0;entryDy=0;dashed=0;labelBackgroundColor=none;strokeColor=#4284F3;strokeWidth=2;fontFamily=Helvetica;fontSize=12;fontColor=#999999;startArrow=none;startFill=0;endArrow=blockThin;endFill=1;startSize=4;endSize=4;" edge="1" parent="1" source="jTatU7AVdfJ_VlUUd2LV-437" target="jTatU7AVdfJ_VlUUd2LV-435">
          <mxGeometry relative="1" as="geometry" />
        </mxCell>
        <mxCell id="jTatU7AVdfJ_VlUUd2LV-437" value="" style="shape=mxgraph.gcp2.doubleRect;strokeColor=#dddddd;shadow=1;strokeWidth=1;rounded=1;absoluteArcSize=1;arcSize=2;fontFamily=Helvetica;fontSize=12;fontColor=#999999;" vertex="1" parent="1">
          <mxGeometry x="415" y="200" width="150" height="68" as="geometry" />
        </mxCell>
        <mxCell id="jTatU7AVdfJ_VlUUd2LV-438" value="&lt;font color=&quot;#000000&quot;&gt;rtmp网关集群&lt;/font&gt;&lt;br&gt;标准rtmp协议" style="editableCssRules=.*;html=1;fontColor=#999999;shape=image;verticalLabelPosition=middle;labelBackgroundColor=#ffffff;verticalAlign=middle;labelPosition=right;align=left;spacingLeft=5;part=1;points=[];imageAspect=0;image=data:image/svg+xml,PHN2ZyB4bWxucz0iaHR0cDovL3d3dy53My5vcmcvMjAwMC9zdmciIHhtbG5zOnY9Imh0dHBzOi8vdmVjdGEuaW8vbmFubyIgd2lkdGg9IjIwIiBoZWlnaHQ9IjE5Ljk4OTk5OTc3MTExODE2NCIgdmlld0JveD0iMCAwIDIwIDE5Ljk4OTk5OTc3MTExODE2NCI+JiN4YTsJPHN0eWxlIHR5cGU9InRleHQvY3NzIj4mI3hhOwkuc3Qwe2ZpbGw6IzQyODVmNDt9JiN4YTsJLnN0MXtmaWxsOiM2NjlkZjY7fSYjeGE7CS5zdDJ7ZmlsbDojYWVjYmZhO30mI3hhOwk8L3N0eWxlPiYjeGE7CTxwYXRoIGNsYXNzPSJzdDEiIGQ9Ik0zIDMuOTlMMCA2LjQydjcuMTNsMyAyLjQ0eiIvPiYjeGE7CTxwYXRoIGNsYXNzPSJzdDAiIGQ9Ik0zIDMuOTlsLTMgNCAzLTJ6bS0zIDhsMyA0di0yeiIvPiYjeGE7CTxwYXRoIGNsYXNzPSJzdDIiIGQ9Ik0wIDE1Ljk5bDQgNCAyLTItNi02em0uMDEtOEw1Ljk5IDJsLTItMkwwIDMuOTl6Ii8+JiN4YTsJPHBhdGggY2xhc3M9InN0MSIgZD0iTTE3IDE2bDMtMi40MlY2LjQ0TDE3IDR6Ii8+JiN4YTsJPHBhdGggY2xhc3M9InN0MCIgZD0iTTE3IDE2bDMtNC0zIDJ6bTMtOGwtMy00djJ6Ii8+JiN4YTsJPGcgY2xhc3M9InN0MiI+JiN4YTsJCTxwYXRoIGQ9Ik0yMCA0bC00LTQtMiAyIDYgNnptLS4wMSA4bC01Ljk4IDUuOTkgMiAyTDIwIDE2eiIvPiYjeGE7CQk8Y2lyY2xlIGN4PSI2IiBjeT0iOS45OSIgcj0iMSIvPiYjeGE7CQk8Y2lyY2xlIGN4PSIxMCIgY3k9IjkuOTkiIHI9IjEiLz4mI3hhOwkJPGNpcmNsZSBjeD0iMTMuOTkiIGN5PSI5Ljk5IiByPSIxIi8+JiN4YTsJPC9nPiYjeGE7PC9zdmc+;fontFamily=Helvetica;fontSize=12;" vertex="1" parent="jTatU7AVdfJ_VlUUd2LV-437">
          <mxGeometry width="30" height="24" relative="1" as="geometry">
            <mxPoint x="15" y="18" as="offset" />
          </mxGeometry>
        </mxCell>
        <mxCell id="jTatU7AVdfJ_VlUUd2LV-442" style="edgeStyle=orthogonalEdgeStyle;shape=connector;rounded=0;orthogonalLoop=1;jettySize=auto;html=1;entryX=0.5;entryY=1;entryDx=0;entryDy=0;dashed=0;labelBackgroundColor=none;strokeColor=#4284F3;strokeWidth=2;fontFamily=Helvetica;fontSize=12;fontColor=#999999;startArrow=none;startFill=0;endArrow=blockThin;endFill=1;startSize=4;endSize=4;" edge="1" parent="1" source="jTatU7AVdfJ_VlUUd2LV-439" target="jTatU7AVdfJ_VlUUd2LV-435">
          <mxGeometry relative="1" as="geometry" />
        </mxCell>
        <mxCell id="jTatU7AVdfJ_VlUUd2LV-439" value="" style="shape=mxgraph.gcp2.doubleRect;strokeColor=#dddddd;shadow=1;strokeWidth=1;rounded=1;absoluteArcSize=1;arcSize=2;fontFamily=Helvetica;fontSize=12;fontColor=#999999;" vertex="1" parent="1">
          <mxGeometry x="415" y="410" width="150" height="68" as="geometry" />
        </mxCell>
        <mxCell id="jTatU7AVdfJ_VlUUd2LV-440" value="&lt;font color=&quot;#000000&quot;&gt;webrtc网关集群&lt;/font&gt;&lt;br&gt;webrtc协议" style="editableCssRules=.*;html=1;fontColor=#999999;shape=image;verticalLabelPosition=middle;labelBackgroundColor=#ffffff;verticalAlign=middle;labelPosition=right;align=left;spacingLeft=5;part=1;points=[];imageAspect=0;image=data:image/svg+xml,PHN2ZyB4bWxucz0iaHR0cDovL3d3dy53My5vcmcvMjAwMC9zdmciIHhtbG5zOnY9Imh0dHBzOi8vdmVjdGEuaW8vbmFubyIgd2lkdGg9IjM2NS40NjQ5OTY3NzA0MjQ5MyIgaGVpZ2h0PSIzNzkuMjIyOTk0NDYzNTc3OTUiIHZpZXdCb3g9IjAgMCA5Ni42OTU5OTkxNDU1MDc4MSAxMDAuMzM1OTk4NTM1MTU2MjUiPiYjeGE7PHN0eWxlIHR5cGU9InRleHQvY3NzIj4mI3hhOwkuc3Qwe2ZpbGw6IzQyODVmNDt9JiN4YTsJLnN0MXtmaWxsOiNhZWNiZmE7fSYjeGE7PC9zdHlsZT4mI3hhOwk8cGF0aCBjbGFzcz0ic3QwIiBkPSJNMjkuNzk0IDEwMC4zMzZMNDYuOTIgNTAuMTY4aDQ5Ljc3NnpNMCA5OS42NzFsMTIuOTc2LTQ5LjUwMkgyOS4yMkwxNi44OTcgOTIuMDU0eiIvPiYjeGE7CTxwYXRoIGNsYXNzPSJzdDEiIGQ9Ik0yOS43OTQgMEw0Ni45MiA1MC4xNjhoNDkuNzc2ek0wIC42NjZsMTIuOTc2IDQ5LjUwMkgyOS4yMkwxNi44OTcgOC4yODN6Ii8+JiN4YTs8L3N2Zz4=;fontFamily=Helvetica;fontSize=12;" vertex="1" parent="jTatU7AVdfJ_VlUUd2LV-439">
          <mxGeometry width="30" height="30" relative="1" as="geometry">
            <mxPoint x="15" y="15" as="offset" />
          </mxGeometry>
        </mxCell>
        <mxCell id="jTatU7AVdfJ_VlUUd2LV-457" value="" style="shape=mxgraph.gcp2.doubleRect;strokeColor=#dddddd;shadow=1;strokeWidth=1;rounded=1;absoluteArcSize=1;arcSize=2;fontFamily=Helvetica;fontSize=12;fontColor=#999999;" vertex="1" parent="1">
          <mxGeometry x="641" y="303" width="150" height="68" as="geometry" />
        </mxCell>
        <mxCell id="jTatU7AVdfJ_VlUUd2LV-458" value="&lt;font color=&quot;#000000&quot;&gt;CDN分发&lt;/font&gt;&lt;br&gt;webrtc协议" style="editableCssRules=.*;html=1;fontColor=#999999;shape=image;verticalLabelPosition=middle;labelBackgroundColor=#ffffff;verticalAlign=middle;labelPosition=right;align=left;spacingLeft=5;part=1;points=[];imageAspect=0;image=data:image/svg+xml,PHN2ZyB4bWxucz0iaHR0cDovL3d3dy53My5vcmcvMjAwMC9zdmciIHhtbG5zOnY9Imh0dHBzOi8vdmVjdGEuaW8vbmFubyIgd2lkdGg9IjM2NS40NjQ5OTY3NzA0MjQ5MyIgaGVpZ2h0PSIzNzkuMjIyOTk0NDYzNTc3OTUiIHZpZXdCb3g9IjAgMCA5Ni42OTU5OTkxNDU1MDc4MSAxMDAuMzM1OTk4NTM1MTU2MjUiPiYjeGE7PHN0eWxlIHR5cGU9InRleHQvY3NzIj4mI3hhOwkuc3Qwe2ZpbGw6IzQyODVmNDt9JiN4YTsJLnN0MXtmaWxsOiNhZWNiZmE7fSYjeGE7PC9zdHlsZT4mI3hhOwk8cGF0aCBjbGFzcz0ic3QwIiBkPSJNMjkuNzk0IDEwMC4zMzZMNDYuOTIgNTAuMTY4aDQ5Ljc3NnpNMCA5OS42NzFsMTIuOTc2LTQ5LjUwMkgyOS4yMkwxNi44OTcgOTIuMDU0eiIvPiYjeGE7CTxwYXRoIGNsYXNzPSJzdDEiIGQ9Ik0yOS43OTQgMEw0Ni45MiA1MC4xNjhoNDkuNzc2ek0wIC42NjZsMTIuOTc2IDQ5LjUwMkgyOS4yMkwxNi44OTcgOC4yODN6Ii8+JiN4YTs8L3N2Zz4=;fontFamily=Helvetica;fontSize=12;" vertex="1" parent="jTatU7AVdfJ_VlUUd2LV-457">
          <mxGeometry width="30" height="30" relative="1" as="geometry">
            <mxPoint x="15" y="15" as="offset" />
          </mxGeometry>
        </mxCell>
        <mxCell id="jTatU7AVdfJ_VlUUd2LV-449" value="播放SDK" style="sketch=0;points=[[0,0,0],[0.25,0,0],[0.5,0,0],[0.75,0,0],[1,0,0],[1,0.25,0],[1,0.5,0],[1,0.75,0],[1,1,0],[0.75,1,0],[0.5,1,0],[0.25,1,0],[0,1,0],[0,0.75,0],[0,0.5,0],[0,0.25,0]];rounded=1;absoluteArcSize=1;arcSize=2;html=1;strokeColor=none;gradientColor=none;shadow=0;dashed=0;fontSize=12;fontColor=#9E9E9E;align=left;verticalAlign=top;spacing=10;spacingTop=-4;fillColor=#F1F8E9;fontFamily=Helvetica;" vertex="1" parent="1">
          <mxGeometry x="859.5" y="207" width="124" height="260" as="geometry" />
        </mxCell>
        <mxCell id="jTatU7AVdfJ_VlUUd2LV-450" value="浏览器观看" style="strokeColor=#dddddd;shadow=1;strokeWidth=1;rounded=1;absoluteArcSize=1;arcSize=2;labelPosition=center;verticalLabelPosition=middle;align=center;verticalAlign=bottom;spacingLeft=0;fontColor=#999999;fontSize=12;whiteSpace=wrap;spacingBottom=2;fontFamily=Helvetica;" vertex="1" parent="1">
          <mxGeometry x="885" y="347" width="70" height="85" as="geometry" />
        </mxCell>
        <mxCell id="jTatU7AVdfJ_VlUUd2LV-451" value="" style="sketch=0;dashed=0;connectable=0;html=1;fillColor=#757575;strokeColor=none;shape=mxgraph.gcp2.laptop;part=1;fontFamily=Helvetica;fontSize=12;fontColor=default;" vertex="1" parent="jTatU7AVdfJ_VlUUd2LV-450">
          <mxGeometry x="0.5" width="50" height="33" relative="1" as="geometry">
            <mxPoint x="-25" y="18.5" as="offset" />
          </mxGeometry>
        </mxCell>
        <mxCell id="jTatU7AVdfJ_VlUUd2LV-452" value="手机观看" style="strokeColor=#dddddd;shadow=1;strokeWidth=1;rounded=1;absoluteArcSize=1;arcSize=2;labelPosition=center;verticalLabelPosition=middle;align=center;verticalAlign=bottom;spacingLeft=0;fontColor=#999999;fontSize=12;whiteSpace=wrap;spacingBottom=2;fontFamily=Helvetica;" vertex="1" parent="1">
          <mxGeometry x="885" y="247" width="70" height="85" as="geometry" />
        </mxCell>
        <mxCell id="jTatU7AVdfJ_VlUUd2LV-453" value="" style="sketch=0;dashed=0;connectable=0;html=1;fillColor=#757575;strokeColor=none;shape=mxgraph.gcp2.phone;part=1;fontFamily=Helvetica;fontSize=12;fontColor=default;" vertex="1" parent="jTatU7AVdfJ_VlUUd2LV-452">
          <mxGeometry x="0.5" width="32" height="50" relative="1" as="geometry">
            <mxPoint x="-16" y="10" as="offset" />
          </mxGeometry>
        </mxCell>
      </root>
    </mxGraphModel>
  </diagram>
</mxfile>
